HIERARCHY
ROOT root
{
	OFFSET 0.000000 0.000000 0.000000
	CHANNELS 6 Xposition Yposition Zposition Zrotation Yrotation Xrotation
	JOINT lhip
	{
		OFFSET 0.058581 -0.082280 -0.017664
		CHANNELS 3 Zrotation Yrotation Xrotation
		JOINT lknee
		{
			OFFSET 0.043451 -0.386469 0.008037
			CHANNELS 3 Zrotation Yrotation Xrotation
			JOINT lankle
			{
				OFFSET -0.014790 -0.426874 -0.037428
				CHANNELS 3 Zrotation Yrotation Xrotation
				JOINT ltoe
				{
					OFFSET 0.041054 -0.060286 0.122042
					CHANNELS 3 Zrotation Yrotation Xrotation
					End Site
					{
						OFFSET 0.000000 0.000000 0.000000
					}
				}
			}
		}
	}
	JOINT rhip
	{
		OFFSET -0.060310 -0.090513 -0.013543
		CHANNELS 3 Zrotation Yrotation Xrotation
		JOINT rknee
		{
			OFFSET -0.043257 -0.383688 -0.004843
			CHANNELS 3 Zrotation Yrotation Xrotation
			JOINT rankle
			{
				OFFSET 0.019056 -0.420046 -0.034562
				CHANNELS 3 Zrotation Yrotation Xrotation
				JOINT rtoe
				{
					OFFSET -0.034840 -0.062106 0.130323
					CHANNELS 3 Zrotation Yrotation Xrotation
					End Site
					{
						OFFSET 0.000000 0.000000 0.000000
					}
				}
			}
		}
	}
	JOINT lowerback
	{
		OFFSET 0.004439 0.124404 -0.038385
		CHANNELS 3 Zrotation Yrotation Xrotation
		JOINT upperback
		{
			OFFSET 0.004488 0.137956 0.026820
			CHANNELS 3 Zrotation Yrotation Xrotation
			JOINT chest
			{
				OFFSET -0.002265 0.056032 0.002855
				CHANNELS 3 Zrotation Yrotation Xrotation
				JOINT lowerneck
				{
					OFFSET -0.013390 0.211636 -0.033468
					CHANNELS 3 Zrotation Yrotation Xrotation
					JOINT upperneck
					{
						OFFSET 0.010113 0.088937 0.050410
						CHANNELS 3 Zrotation Yrotation Xrotation
						End Site
						{
							OFFSET 0.000000 0.000000 0.000000
						}
					}
				}
				JOINT lclavicle
				{
					OFFSET 0.071702 0.114000 -0.018898
					CHANNELS 3 Zrotation Yrotation Xrotation
					JOINT lshoulder
					{
						OFFSET 0.122921 0.045205 -0.019046
						CHANNELS 3 Zrotation Yrotation Xrotation
						JOINT lelbow
						{
							OFFSET 0.255332 -0.015649 -0.022946
							CHANNELS 3 Zrotation Yrotation Xrotation
							JOINT lwrist
							{
								OFFSET 0.265709 0.012698 -0.007375
								CHANNELS 3 Zrotation Yrotation Xrotation
								End Site
								{
									OFFSET 0.000000 0.000000 0.000000
								}
							}
						}
					}
				}
				JOINT rclavicle
				{
					OFFSET -0.082954 0.112472 -0.023707
					CHANNELS 3 Zrotation Yrotation Xrotation
					JOINT rshoulder
					{
						OFFSET -0.113228 0.046853 -0.008472
						CHANNELS 3 Zrotation Yrotation Xrotation
						JOINT relbow
						{
							OFFSET -0.260127 -0.014369 -0.031269
							CHANNELS 3 Zrotation Yrotation Xrotation
							JOINT rwrist
							{
								OFFSET -0.269108 0.006794 -0.006027
								CHANNELS 3 Zrotation Yrotation Xrotation
								End Site
								{
									OFFSET 0.000000 0.000000 0.000000
								}
							}
						}
					}
				}
			}
		}
	}
}
MOTION
Frames: 10
Frame Time: 0.033333
0.601482 0.720794 0.990402 -79.107445 1.032129 92.765161 3.213587 -3.389336 -11.871400 -5.984267 2.861736 4.530029 4.691027 9.015488 -4.558068 0.000000 -0.000000 0.000000 0.600715 2.551061 -4.698018 3.679051 4.577113 40.392293 6.889016 1.797686 -3.060747 0.000000 -0.000000 0.000000 -2.835917 2.283347 7.567887 1.676913 -1.040341 4.966031 -1.659157 0.075422 1.073449 2.126901 -2.898223 -11.958846 -1.279663 -11.782218 6.079718 -29.295600 7.405979 1.763779 -55.241885 -1.245298 11.256677 19.241684 -39.372045 -1.228882 -1.033463 -12.595795 -12.508624 32.085142 1.228745 1.915079 55.527197 6.047309 16.252784 -17.739982 29.154705 -2.891474 7.605452 11.592032 -4.434167 
0.587409 0.711631 0.989658 -79.532139 1.060298 92.459903 2.831994 -2.701995 -10.738509 -6.361042 2.283807 4.999619 5.495256 9.215614 -5.902944 0.000000 -0.000000 0.000000 -0.822385 2.363229 -8.430639 5.068760 3.639018 46.897619 8.434664 1.399148 -1.212709 0.000000 -0.000000 0.000000 -3.418837 1.530080 8.175650 1.877739 -1.067897 4.693175 -1.666572 -0.368684 1.195155 2.269071 -1.948295 -12.766439 -1.955301 -11.374921 6.669144 -28.850823 6.994754 1.959185 -54.242838 -1.420294 11.441192 18.285112 -40.522358 -0.137668 -1.361124 -12.726174 -11.986214 32.546655 1.593048 1.712643 54.923468 6.593960 16.737303 -17.805592 30.216655 -3.087838 8.344128 11.923155 -3.412260 
0.573044 0.702784 0.989995 -79.596061 1.272625 91.651542 2.490089 -1.866153 -8.960743 -6.426866 1.773287 5.281277 5.400342 9.248392 -7.482274 0.000000 -0.000000 0.000000 -1.884966 1.907060 -10.893487 3.753144 0.231818 50.711576 7.059037 -1.897019 -3.423654 0.000000 -0.000000 0.000000 -3.497711 0.576990 9.121960 1.930510 -1.290124 4.596469 -1.761271 -0.688375 1.252910 2.199993 -1.099337 -13.038889 -2.611368 -10.932352 7.476704 -28.900124 6.603942 1.857204 -52.732911 -2.178186 10.943457 17.282175 -40.985045 0.920948 -2.135542 -13.027309 -11.331519 33.541793 1.727228 1.240628 54.110315 7.256919 16.939481 -18.077991 31.631045 -3.276491 9.075427 11.905062 -2.945499 
0.555598 0.693949 0.991854 -79.873645 1.682758 91.244425 2.233102 -0.772912 -7.251568 -6.147169 1.322319 5.528372 5.412119 8.703166 -8.455615 0.000000 -0.000000 0.000000 -2.562940 0.783408 -14.162158 -0.834336 -4.137140 52.430432 5.403887 -6.996599 -4.656905 0.000000 -0.000000 0.000000 -3.408046 -0.776683 9.747026 1.661197 -1.588435 3.735822 -1.832739 -0.454420 1.586565 2.009488 -0.592599 -12.028780 -2.596668 -9.837605 7.476053 -28.252807 6.311319 2.088421 -52.018814 -3.182416 9.947942 17.625888 -41.305593 0.902244 -1.081329 -12.901867 -11.673106 33.803358 2.285678 1.716519 55.240462 7.786183 17.014211 -20.189333 32.851187 -5.733290 8.040090 11.483716 -3.868817 
0.545537 0.689555 0.992947 -80.038421 2.134687 90.993860 2.405559 -0.176136 -6.173141 -5.951349 1.269109 5.413633 5.174462 8.345363 -9.115406 0.000000 -0.000000 0.000000 -2.510942 0.297484 -15.670349 -2.999043 -5.982709 51.807461 3.803924 -9.908933 -5.459519 0.000000 -0.000000 0.000000 -3.370011 -0.979313 9.750012 1.729639 -1.366759 3.751692 -1.528876 -0.673725 1.808713 2.018954 -0.556262 -11.893379 -2.702856 -9.575464 7.848776 -27.744176 6.030840 2.398194 -52.208950 -4.434940 9.440320 18.021848 -41.036210 0.507876 0.686862 -13.102022 -12.651930 33.346775 2.199829 1.653894 56.177741 8.231811 17.023396 -20.885145 33.256881 -6.657547 6.277478 12.397532 -4.896405 
0.533949 0.683177 0.993544 -79.918819 2.984204 90.809522 2.927267 -0.146682 -4.850651 -5.665276 1.216841 4.769510 4.830558 8.264728 -9.473247 0.000000 -0.000000 0.000000 -2.141325 0.032803 -17.318342 -4.893488 -8.188946 48.906416 2.086800 -12.114608 -6.822289 0.000000 -0.000000 0.000000 -2.850861 -1.289870 9.406209 1.870338 -1.354765 4.557873 -1.223404 -0.949314 1.692080 2.119804 -0.570202 -11.971276 -2.531727 -9.629053 8.127526 -27.050200 5.201915 2.789510 -52.829357 -5.868183 9.084692 19.773104 -40.994500 -1.971500 2.465995 -13.215190 -14.438233 32.755744 2.786479 1.890507 56.692938 8.474846 17.170994 -21.825268 34.235777 -7.418637 4.346888 12.465083 -5.847752 
0.521735 0.678349 0.994592 -80.061440 3.450943 90.649532 3.230013 0.534667 -3.524041 -5.763143 0.645276 4.328211 4.463786 8.461822 -10.468081 0.000000 -0.000000 0.000000 -1.754598 0.275423 -18.320561 -4.767744 -8.985780 44.030090 2.208294 -12.604994 -8.183209 0.000000 -0.000000 0.000000 -2.996273 -1.571712 10.133240 1.937570 -1.099510 3.637155 -0.806387 -1.178724 1.723002 2.260880 -0.178815 -12.023196 -2.301234 -9.519881 8.794541 -26.600987 5.255038 2.798500 -52.505994 -6.682374 8.861746 20.635592 -42.162916 -3.944704 4.774275 -13.270437 -15.457382 32.668506 2.731520 1.775263 56.688238 8.436105 17.546513 -21.297175 35.121319 -6.592999 4.210655 12.132605 -5.890118 
0.510918 0.674158 0.993640 -80.213257 3.897219 90.650935 3.658172 0.965562 -2.566535 -5.881895 0.945808 3.894696 4.164823 8.169342 -10.940178 0.000000 -0.000000 0.000000 -1.461428 0.742550 -19.186535 -3.619533 -9.282566 37.672224 2.322266 -11.338931 -9.241826 0.000000 -0.000000 0.000000 -3.041852 -1.551561 9.699725 2.087106 -1.175573 4.652773 -0.553689 -1.380195 1.609212 2.514117 0.687032 -12.464918 -2.091871 -9.890564 8.640724 -26.247296 4.871906 2.484717 -51.941482 -7.786559 8.864680 21.874443 -43.189568 -6.303506 4.357984 -13.318431 -15.881841 32.701683 3.021519 1.673497 56.420837 8.827978 18.006197 -21.281051 36.116810 -5.976329 5.434142 12.395451 -5.555474 
0.500698 0.670433 0.993198 -80.253177 4.327923 91.163128 4.103521 1.655644 -2.334985 -5.982368 1.056487 3.753411 2.709463 7.667878 -11.085057 0.000000 -0.000000 0.000000 -1.049359 0.806790 -19.720072 -2.461743 -9.330275 29.408585 3.818332 -9.056232 -9.144281 0.000000 -0.000000 0.000000 -2.866959 -1.781898 10.420648 2.038519 -1.287205 3.195589 -0.329970 -1.391067 1.229866 2.458540 0.939671 -12.201643 -1.853022 -10.188823 9.124254 -25.895318 4.913389 2.290705 -51.243056 -8.161037 8.556323 22.426914 -43.983604 -7.671622 3.289337 -14.281893 -15.056793 32.827569 2.725108 1.757835 56.328100 8.544716 18.011172 -20.719462 36.817971 -5.029451 7.108544 12.870567 -4.767346 
0.489463 0.667709 0.991603 -80.579325 4.540239 91.448790 4.380622 1.793393 -1.626558 -6.032673 1.616835 3.293098 2.108009 7.349573 -11.683322 0.000000 -0.000000 0.000000 -0.159475 0.146251 -19.759142 -1.423240 -9.094089 18.472625 4.438154 -7.463392 -6.850195 0.000000 -0.000000 0.000000 -2.943531 -1.374924 9.486868 1.914170 -1.615308 4.967274 -0.195863 -1.238887 1.239856 2.272652 1.547222 -13.103698 -1.457164 -10.827052 8.515040 -25.144805 4.568449 1.688829 -50.846220 -9.794987 8.707871 23.752237 -45.405507 -9.527509 4.909473 -13.991968 -14.867989 32.887747 3.054569 1.905667 56.701097 9.546019 18.199466 -20.819154 36.722504 -5.122782 5.233929 12.506170 -4.546780 
